<svg width="199" height="46" viewBox="0 0 199 46" fill="none" xmlns="http://www.w3.org/2000/svg">
<rect width="199" height="46" rx="8" fill="#8A33FD"/>
<path d="M42.5 16.3333H43.0053C43.8558 16.3333 44.5699 16.9738 44.6621 17.8193L45.3379 24.0141C45.4301 24.8596 46.1442 25.5 46.9947 25.5H54.205C54.9669 25.5 55.6317 24.9834 55.82 24.2452L56.9699 19.7359C57.2387 18.6821 56.4425 17.6574 55.355 17.6574H45.5M45.5206 28.5208H46.1456M45.5206 29.1458H46.1456M54.6873 28.5208H55.3123M54.6873 29.1458H55.3123M46.6667 28.8333C46.6667 29.2936 46.2936 29.6667 45.8333 29.6667C45.3731 29.6667 45 29.2936 45 28.8333C45 28.3731 45.3731 28 45.8333 28C46.2936 28 46.6667 28.3731 46.6667 28.8333ZM55.8333 28.8333C55.8333 29.2936 55.4602 29.6667 55 29.6667C54.5398 29.6667 54.1667 29.2936 54.1667 28.8333C54.1667 28.3731 54.5398 28 55 28C55.4602 28 55.8333 28.3731 55.8333 28.8333Z" stroke="white" stroke-width="1.5" stroke-linecap="round"/>
<path d="M81.5538 30L80.6538 27.75H75.6498L74.7498 30H72.6258L77.3778 18.3H78.9078L83.6778 30H81.5538ZM76.3698 25.914H79.9338L78.1518 21.45L76.3698 25.914ZM90.9614 18.3H92.8874V30H90.9614V28.938C90.3854 29.676 89.5034 30.144 88.3514 30.144C86.0474 30.144 84.3734 28.326 84.3734 25.86C84.3734 23.358 86.0474 21.594 88.3514 21.594C89.5034 21.594 90.3854 22.044 90.9614 22.8V18.3ZM88.6214 28.326C90.0434 28.326 90.9614 27.282 90.9614 25.86C90.9614 24.438 90.0434 23.412 88.6214 23.412C87.1994 23.412 86.2634 24.438 86.2634 25.86C86.2634 27.282 87.1994 28.326 88.6214 28.326ZM101.262 18.3H103.188V30H101.262V28.938C100.686 29.676 99.8042 30.144 98.6522 30.144C96.3482 30.144 94.6742 28.326 94.6742 25.86C94.6742 23.358 96.3482 21.594 98.6522 21.594C99.8042 21.594 100.686 22.044 101.262 22.8V18.3ZM98.9222 28.326C100.344 28.326 101.262 27.282 101.262 25.86C101.262 24.438 100.344 23.412 98.9222 23.412C97.5002 23.412 96.5642 24.438 96.5642 25.86C96.5642 27.282 97.5002 28.326 98.9222 28.326ZM113.223 23.196H111.387V27.444C111.387 28.38 111.963 28.488 112.503 28.488H113.133V30H111.729C110.199 30 109.443 29.19 109.443 27.75V23.196H108.345V21.72H109.443V19.182H111.387V21.72H113.223V23.196ZM118.522 30.162C116.02 30.162 114.256 28.326 114.256 25.86C114.256 23.358 116.02 21.558 118.522 21.558C121.024 21.558 122.77 23.358 122.77 25.86C122.77 28.326 121.024 30.162 118.522 30.162ZM118.522 28.326C119.926 28.326 120.844 27.264 120.844 25.86C120.844 24.456 119.926 23.412 118.522 23.412C117.118 23.412 116.182 24.456 116.182 25.86C116.182 27.264 117.118 28.326 118.522 28.326ZM134.054 24.33C133.712 23.88 133.118 23.412 132.128 23.412C130.706 23.412 129.734 24.438 129.734 25.86C129.734 27.282 130.706 28.326 132.128 28.326C133.118 28.326 133.694 27.894 134.054 27.426L135.44 28.47C134.72 29.514 133.532 30.162 132.074 30.162C129.572 30.162 127.844 28.362 127.844 25.86C127.844 23.358 129.572 21.576 132.074 21.576C133.532 21.576 134.72 22.224 135.44 23.25L134.054 24.33ZM143.151 21.72H145.077V30H143.151V28.938C142.575 29.676 141.693 30.144 140.541 30.144C138.237 30.144 136.563 28.326 136.563 25.86C136.563 23.358 138.237 21.594 140.541 21.594C141.693 21.594 142.575 22.044 143.151 22.8V21.72ZM140.811 28.326C142.233 28.326 143.151 27.282 143.151 25.86C143.151 24.438 142.233 23.412 140.811 23.412C139.389 23.412 138.453 24.438 138.453 25.86C138.453 27.282 139.389 28.326 140.811 28.326ZM149.096 23.214C149.78 22.08 150.896 21.612 152.012 21.594V23.412C151.04 23.43 149.096 23.736 149.096 25.986V30H147.17V21.72H149.096V23.214ZM157.906 23.196H156.07V27.444C156.07 28.38 156.646 28.488 157.186 28.488H157.816V30H156.412C154.882 30 154.126 29.19 154.126 27.75V23.196H153.028V21.72H154.126V19.182H156.07V21.72H157.906V23.196Z" fill="white"/>
</svg>
