<svg width="138" height="46" viewBox="0 0 138 46" fill="none" xmlns="http://www.w3.org/2000/svg">
<path d="M44.6693 30.9V29.64C42.9233 29.37 41.5373 28.47 41.0873 27.156L43.0313 25.932C43.2833 26.562 44.5613 27.552 45.8573 27.552C46.9373 27.552 47.5133 27.246 47.5133 26.526C47.5133 25.608 46.1273 25.374 45.2993 25.104C44.4353 24.834 41.6813 24.168 41.6813 21.828C41.6813 20.082 42.9773 19.074 44.6693 18.786V17.544H46.8473V18.786C48.4493 19.074 49.8173 19.956 50.2853 20.946L48.4493 22.134C48.1253 21.54 46.9193 20.766 45.7853 20.766C44.7953 20.766 44.3453 21.144 44.3453 21.684C44.3453 22.602 45.6773 22.872 46.5413 23.16C47.4053 23.448 50.1593 24.132 50.1593 26.418C50.1593 28.29 48.8633 29.406 46.8473 29.676V30.9H44.6693ZM56.317 30.144C53.887 30.144 52.087 28.254 52.087 25.878C52.087 24.924 52.357 24.078 52.843 23.376L56.119 18.3H58.639L56.497 21.612C58.837 21.702 60.529 23.52 60.529 25.878C60.529 28.254 58.747 30.144 56.317 30.144ZM56.317 27.948C57.487 27.948 58.333 27.084 58.333 25.878C58.333 24.654 57.487 23.772 56.317 23.772C55.111 23.772 54.283 24.654 54.283 25.878C54.283 27.084 55.111 27.948 56.317 27.948ZM65.9778 30.144C64.2498 30.144 62.5938 29.388 61.8738 28.344L63.3318 26.778C63.7818 27.318 64.7898 27.876 65.9778 27.876C67.3098 27.876 68.2638 27.21 68.2638 26.076C68.2638 24.906 67.3098 24.222 65.9778 24.222C65.3118 24.222 64.7358 24.294 63.9258 24.546L63.9438 22.872L67.0218 20.424H62.7018V18.3H70.2798V20.28L67.6518 22.548C69.1458 22.908 70.5858 23.916 70.5858 26.076C70.5858 28.974 68.2638 30.144 65.9778 30.144ZM73.1345 30.108C72.4325 30.108 71.9285 29.604 71.9285 28.902C71.9285 28.218 72.4325 27.732 73.1345 27.732C73.8185 27.732 74.3225 28.218 74.3225 28.902C74.3225 29.604 73.8185 30.108 73.1345 30.108ZM80.3816 30.144C77.3576 30.144 75.3956 27.624 75.3956 24.15C75.3956 20.676 77.3576 18.156 80.3816 18.156C83.4236 18.156 85.4396 20.676 85.4396 24.15C85.4396 27.624 83.4236 30.144 80.3816 30.144ZM80.3816 27.876C81.8396 27.876 83.0456 26.58 83.0456 24.15C83.0456 21.702 81.8396 20.478 80.3816 20.478C78.9416 20.478 77.7176 21.702 77.7176 24.15C77.7176 26.58 78.9416 27.876 80.3816 27.876ZM91.8601 30.144C88.8361 30.144 86.8741 27.624 86.8741 24.15C86.8741 20.676 88.8361 18.156 91.8601 18.156C94.9021 18.156 96.9181 20.676 96.9181 24.15C96.9181 27.624 94.9021 30.144 91.8601 30.144ZM91.8601 27.876C93.3181 27.876 94.5241 26.58 94.5241 24.15C94.5241 21.702 93.3181 20.478 91.8601 20.478C90.4201 20.478 89.1961 21.702 89.1961 24.15C89.1961 26.58 90.4201 27.876 91.8601 27.876Z" fill="#3C4242"/>
<rect x="0.5" y="0.5" width="137" height="45" rx="7.5" stroke="#3C4242"/>
</svg>
